<svg width="1028" height="247" viewBox="0 0 1028 247" fill="none" xmlns="http://www.w3.org/2000/svg">
<path d="M563.521 98.4477H614.898L678.856 12.7988H627.48L563.521 98.4477Z" fill="#9C78FF"/>
<path d="M698.387 196.878H745.691L892.705 0H845.401L698.387 196.878Z" fill="#9C78FF"/>
<path d="M976.176 98.4473L912.234 184.096H963.61L1027.57 98.4473H976.176Z" fill="#9C78FF"/>
<path d="M32.4744 39.1934H0.412109V166.512H32.4744V39.1934Z" fill="#9C78FF"/>
<path d="M157.249 39.4258H125.187V97.0515C125.337 97.0515 125.37 98.1817 125.304 100.426C125.22 102.669 125.187 105.262 125.187 108.204L86.3767 39.4258H55.9434V166.511H88.0056V101.456L95.9007 116.332L124.705 166.511H157.233V39.4258H157.249Z" fill="#9C78FF"/>
<path d="M249.714 97.0515C249.863 97.0515 249.913 98.1817 249.83 100.426C249.747 102.669 249.714 105.262 249.714 108.204L210.92 39.4258H180.486V166.511H212.549V101.456L220.444 116.332L249.248 166.511H281.776V39.4258H249.714V97.0515Z" fill="#9C78FF"/>
<path d="M394.001 48.3682C389.048 44.7282 383.397 42.019 377.048 40.2405C370.699 38.4621 364.183 37.5645 357.535 37.5645C351.036 37.5645 344.603 38.4621 338.254 40.2405C331.905 42.019 326.287 44.7282 321.4 48.3682C316.53 52.0083 312.574 56.5791 309.549 62.0807C306.524 67.5823 305.012 73.9649 305.012 81.2449V124.693C305.012 131.973 306.524 138.322 309.549 143.741C312.574 149.159 316.563 153.697 321.517 157.337C326.47 160.977 332.121 163.686 338.47 165.464C344.819 167.243 351.252 168.14 357.751 168.14C364.416 168.14 370.881 167.243 377.148 165.464C383.414 163.686 389.032 160.977 394.001 157.337C398.955 153.697 402.944 149.159 405.969 143.741C408.994 138.322 410.506 131.973 410.506 124.693V81.2449C410.506 73.9649 408.994 67.5823 405.969 62.0807C402.944 56.5791 398.955 52.0083 394.001 48.3682ZM378.195 124.693C378.195 129.18 376.067 132.588 371.812 134.915C367.557 137.242 362.87 138.405 357.751 138.405C355.274 138.405 352.798 138.139 350.321 137.591C347.844 137.059 345.601 136.195 343.59 135.031C341.578 133.868 339.983 132.438 338.819 130.726C337.656 129.031 337.074 127.003 337.074 124.693V81.2449C337.074 78.918 337.656 76.8237 338.819 74.9787C339.983 73.1172 341.528 71.6047 343.473 70.4578C345.401 69.2943 347.579 68.4133 349.989 67.7817C352.382 67.1668 354.825 66.851 357.302 66.851C359.928 66.851 362.488 67.117 364.964 67.6655C367.441 68.214 369.685 69.0616 371.696 70.2251C373.707 71.3886 375.303 72.9011 376.45 74.7626C377.613 76.6242 378.195 78.785 378.195 81.2616V124.693Z" fill="#9C78FF"/>
<path d="M519.459 53.371C515.586 49.1824 510.749 45.8249 504.932 43.2653C499.131 40.7056 492.349 39.4258 484.604 39.4258H433.727V166.511H465.789V129.346H484.604C492.349 129.346 499.131 128.067 504.932 125.507C510.732 122.947 515.586 119.54 519.459 115.285C523.331 111.03 526.223 106.193 528.168 100.758C530.096 95.3395 531.077 89.8379 531.077 84.2698C531.077 78.6851 530.113 73.2001 528.168 67.765C526.24 62.3465 523.331 57.5429 519.459 53.371ZM495.408 95.888C492.998 99.1457 489.408 100.775 484.604 100.775H465.789V69.4104H484.604C489.408 69.4104 492.998 71.0393 495.408 74.2804C497.801 77.5382 499.015 81.1284 499.015 85.0842C499.015 89.04 497.818 92.6302 495.408 95.888Z" fill="white"/>
<path d="M645.846 109.018C650.184 102.286 652.362 93.0281 652.362 81.2603C652.196 73.8307 650.882 67.4315 648.406 62.0961C645.929 56.7441 642.605 52.4225 638.417 49.0817C634.245 45.7574 629.275 43.3142 623.557 41.7684C617.823 40.2226 611.706 39.4414 605.208 39.4414H554.33V166.527H586.858V129.661L627.496 184.096H678.873L631.868 121.151C637.669 118.475 642.356 114.453 645.846 109.018ZM605.656 69.3928C610.776 69.3928 614.565 70.9053 617.042 73.9137C619.518 76.9388 620.765 80.263 620.765 83.903C620.765 87.5431 619.518 90.8673 617.042 93.8924C614.565 96.9174 610.776 98.4134 605.656 98.4134H586.841V69.3762H605.656V69.3928Z" fill="white"/>
<path d="M764.57 48.3682C759.617 44.7282 753.966 42.019 747.616 40.2405C741.267 38.4621 734.752 37.5645 728.103 37.5645C721.604 37.5645 715.172 38.4621 708.822 40.2405C702.473 42.019 696.855 44.7282 691.969 48.3682C687.099 52.0083 683.143 56.5791 680.118 62.0807C677.093 67.5823 675.58 73.9649 675.58 81.2449V124.693C675.58 131.973 677.093 138.322 680.118 143.741C683.143 149.159 687.132 153.697 692.085 157.337C697.038 160.977 702.689 163.686 709.039 165.464C715.388 167.243 721.82 168.14 728.319 168.14C734.984 168.14 741.45 167.243 747.716 165.464C753.982 163.686 759.6 160.977 764.57 157.337C769.523 153.697 773.512 149.159 776.537 143.741C779.562 138.322 781.075 131.973 781.075 124.693V81.2449C781.075 73.9649 779.562 67.5823 776.537 62.0807C773.512 56.5791 769.523 52.0083 764.57 48.3682ZM748.78 124.693C748.78 129.18 746.652 132.588 742.397 134.915C738.142 137.242 733.455 138.405 728.336 138.405C725.859 138.405 723.383 138.139 720.906 137.591C718.429 137.059 716.186 136.195 714.174 135.031C712.163 133.868 710.568 132.438 709.404 130.726C708.241 129.031 707.659 127.003 707.659 124.693V81.2449C707.659 78.918 708.241 76.8237 709.404 74.9787C710.568 73.1172 712.113 71.6047 714.058 70.4578C715.986 69.2943 718.164 68.4133 720.574 67.7817C722.967 67.1668 725.41 66.851 727.887 66.851C730.513 66.851 733.073 67.117 735.549 67.6655C738.026 68.214 740.27 69.0616 742.281 70.2251C744.292 71.3886 745.888 72.9011 747.035 74.7626C748.198 76.6242 748.78 78.785 748.78 81.2616V124.693Z" fill="white"/>
<path d="M852.048 119.59H873.539V124.244C873.539 129.197 871.594 132.92 867.738 135.397C863.865 137.873 859.61 139.12 854.956 139.12C850.302 139.12 846.047 137.873 842.175 135.397C838.302 132.92 836.374 129.197 836.374 124.244V80.5634C836.374 75.9095 838.186 72.3193 841.826 69.7597C845.466 67.2 849.521 65.9202 854.026 65.9202C857.582 65.9202 861.04 66.8178 864.364 68.5963C867.688 70.3747 870.215 73.2003 871.91 77.073L898.637 64.5241C896.476 59.4214 893.717 55.1497 890.393 51.7424C887.068 48.335 883.428 45.5925 879.473 43.4982C875.517 41.404 871.411 39.8915 867.156 38.9607C862.901 38.0299 858.679 37.5645 854.491 37.5645C848.291 37.5645 842.175 38.4621 836.141 40.2405C830.108 42.019 824.722 44.7282 819.985 48.3682C815.265 52.0083 811.475 56.496 808.6 61.8481C805.741 67.1835 804.295 73.433 804.295 80.5469V124.227C804.295 131.507 805.724 137.907 808.6 143.392C811.459 148.893 815.265 153.464 819.985 157.104C824.706 160.744 830.091 163.486 836.141 165.348C842.175 167.21 848.291 168.14 854.491 168.14C860.84 168.14 867.04 167.21 873.073 165.348C879.107 163.486 884.459 160.744 889.096 157.104C893.75 153.464 897.457 148.893 900.249 143.392C903.041 137.89 904.437 131.507 904.437 124.227V92.6304H872.292L852.048 119.59Z" fill="white"/>
<path d="M963.609 12.7988H912.232L976.174 98.4477H1027.57L963.609 12.7988Z" fill="white"/>
<path d="M1.37614 196.944H0.412109V245.229H1.37614V245.245H31.9923V239.694H6.51208V223.621H30.2305V218.07H6.51208V202.463H31.9923V196.928H1.37614V196.944Z" fill="white"/>
<path d="M102.881 203.709C100.554 201.548 97.7281 199.853 94.4538 198.673C91.2293 197.509 87.5726 196.928 83.6168 196.928H65.7656V245.229H83.6168C87.5892 245.229 91.2293 244.647 94.4538 243.484C97.7115 242.304 100.554 240.625 102.864 238.497C105.191 236.353 107.003 233.76 108.216 230.768C109.413 227.843 110.028 224.585 110.028 221.078C110.028 217.621 109.413 214.38 108.216 211.438C107.003 208.48 105.208 205.87 102.881 203.709ZM102.515 228.84C101.584 231.084 100.255 233.029 98.5259 234.608C96.7973 236.187 94.6698 237.45 92.1933 238.331C89.6835 239.229 86.7914 239.694 83.5835 239.694H71.8323V202.463H83.5835C86.7748 202.463 89.6669 202.911 92.1933 203.826C94.6698 204.706 96.7807 205.97 98.5093 207.582C100.238 209.194 101.584 211.139 102.498 213.399C103.446 215.71 103.928 218.286 103.928 221.095C103.944 223.921 103.462 226.53 102.515 228.84Z" fill="white"/>
<path d="M174.802 227.961C174.802 229.972 174.486 231.783 173.838 233.346C173.223 234.858 172.342 236.171 171.245 237.218C170.148 238.266 168.868 239.047 167.323 239.595C165.744 240.16 163.948 240.46 161.971 240.46C160.026 240.46 158.247 240.177 156.668 239.595C155.106 239.03 153.81 238.249 152.713 237.202C151.599 236.155 150.735 234.858 150.12 233.346C149.488 231.783 149.156 229.972 149.156 227.961V196.929H143.072V227.961C143.072 230.637 143.521 233.096 144.419 235.274C145.333 237.501 146.646 239.446 148.341 241.041C150.037 242.654 152.098 243.9 154.441 244.748C156.735 245.579 159.278 246.011 162.004 246.011C164.746 246.011 167.306 245.596 169.6 244.748C171.96 243.9 174.004 242.654 175.683 241.025C177.345 239.429 178.658 237.501 179.572 235.257C180.47 233.08 180.919 230.62 180.919 227.944V196.912H174.819V227.961H174.802Z" fill="white"/>
<path d="M256.279 207.383L260.584 203.461C249.896 193.737 232.51 193.737 221.823 203.461C216.637 208.164 213.795 214.431 213.795 221.079C213.795 227.727 216.654 233.994 221.823 238.697C227.158 243.551 234.189 245.978 241.203 245.978C248.217 245.978 255.248 243.551 260.584 238.697L256.279 234.775C247.968 242.337 234.438 242.337 226.128 234.775C222.105 231.118 219.878 226.248 219.878 221.062C219.878 215.877 222.089 211.023 226.128 207.35C234.438 199.821 247.951 199.821 256.279 207.383Z" fill="white"/>
<path d="M308.452 196.945L289.338 245.246H295.82L300.773 232.731H325.09L330.043 245.246H336.509L317.394 196.945H308.452ZM302.967 227.179L312.94 201.998L322.913 227.179H302.967Z" fill="white"/>
<path d="M379.657 196.928H373.557H357.385V202.463H373.557V245.229H379.657V202.463H395.83V196.928H379.657Z" fill="white"/>
<path d="M433.642 196.945H427.559V245.246H433.642V196.945Z" fill="white"/>
<path d="M493.96 196.164C479.151 196.164 467.117 207.35 467.117 221.079C467.117 234.825 479.168 245.994 493.96 245.994C508.77 245.994 520.82 234.808 520.82 221.079C520.804 207.35 508.77 196.164 493.96 196.164ZM493.96 240.476C482.508 240.476 473.201 231.783 473.201 221.096C473.201 210.408 482.508 201.715 493.96 201.715C505.412 201.715 514.72 210.408 514.72 221.096C514.72 231.767 505.412 240.476 493.96 240.476Z" fill="white"/>
<path d="M586.276 224.121C586.276 229.357 586.974 236.803 586.974 236.803C586.974 236.803 584.547 231.733 579.345 224.453L559.732 196.945H554.264V245.246H560.347V218.071C560.347 212.835 559.649 205.389 559.649 205.389C559.649 205.389 562.092 210.475 567.278 217.755L586.891 245.263H592.359V196.962H586.276V224.121Z" fill="white"/>
</svg>
